<svg width="208" height="54" viewBox="0 0 208 54" fill="none" xmlns="http://www.w3.org/2000/svg">
<path d="M179.986 8.22479C196.495 7.77236 204.522 9.41394 204.772 24.1338C204.827 27.4055 206.328 33.1393 205.703 37.6323C205.754 40.6309 196.736 46.5652 190.422 46.5217C185.512 46.4878 182.709 46.6826 175.006 47.4147C165.202 48.3465 151.578 49.0496 142.046 49.3109C128.932 49.6703 115.55 50.704 102.625 48.8895C90.1051 47.1321 48.0977 48.2286 35.4398 48.5755C17.2003 48.4497 7.34307 46.2582 4.40952 38.7423C3.57214 30.7411 -2.48189 20.208 5.98223 12.771C18.1159 2.10982 48.4893 4.82048 65.9469 4.34204C77.1776 4.03425 88.4084 3.72646 99.6391 3.41867C106.24 3.23776 112.87 2.89346 119.481 2.87489C125.039 2.85928 130.688 4.57007 136.223 4.41836C146.326 4.14148 156.453 6.86743 166.512 6.59175C174.215 6.38064 181.918 6.16952 189.622 5.95841" stroke="#261D1B" stroke-width="3" stroke-linecap="round"/>
<path d="M145.434 34.4319C145.91 34.7399 146.302 35.1319 146.302 35.7479C146.33 36.1119 146.274 36.4199 146.218 36.6999C146.106 37.1199 145.966 37.5119 145.77 37.9879C145.546 38.5759 145.154 38.9119 144.51 38.8279C143.838 38.7439 143.222 38.1839 143.11 37.5679C142.942 36.5319 143.026 35.5799 143.95 34.8519C144.538 34.3759 145.014 34.1519 145.434 34.4319ZM143.586 25.9199C143.334 24.8559 143.25 23.7919 143.138 22.7279C143.026 21.7199 142.802 20.7679 142.466 19.8159C142.354 19.5079 142.382 19.1719 142.382 18.8359C142.354 18.1079 143.194 16.9879 143.894 16.7919C144.398 16.6239 145.518 17.7159 145.602 18.5279C145.658 18.9759 145.658 19.4239 145.658 19.8719C145.658 21.3279 145.658 22.7839 145.658 24.2399C145.658 26.1159 145.658 28.0199 145.63 29.9239C145.602 30.1479 145.238 30.4839 144.986 30.5119C144.734 30.5399 144.314 30.3439 144.174 30.1199C143.922 29.7839 143.754 29.3359 143.698 28.9159C143.642 27.9079 143.81 26.8719 143.586 25.9199Z" fill="#261D1B"/>
<path d="M137.685 28.0759H137.657C138.245 30.2319 137.713 32.2199 136.873 34.2079C136.537 35.0199 135.837 35.6639 135.053 36.0279C134.633 36.2239 134.213 36.3359 133.765 36.3919C133.401 36.4199 132.981 36.4479 132.589 36.4199C132.365 36.4199 132.141 36.3919 131.945 36.3359C131.077 36.0839 130.125 36.0279 129.257 35.7479C128.697 35.5519 128.109 35.1599 127.717 34.7119C126.149 32.9479 126.149 31.0719 127.577 29.2239C128.781 27.7119 130.433 27.0959 132.253 26.8159C132.869 26.7319 133.513 26.8159 134.157 26.7319C134.381 26.7039 134.773 26.3679 134.773 26.1719C134.857 24.1839 135.025 22.1679 134.437 20.1799C134.241 19.5919 134.241 18.9479 134.269 18.3319C134.297 18.0519 134.605 17.7999 134.829 17.5759C135.137 17.2679 135.389 17.5479 135.613 17.7439C136.201 18.2199 136.649 18.7239 136.705 19.5919C136.789 20.7399 137.097 21.8599 137.209 23.0079C137.321 24.1839 137.293 25.3599 137.377 26.5079C137.405 27.0399 137.545 27.5439 137.685 28.0759ZM134.941 33.0599C135.557 32.0799 135.557 31.0439 135.445 29.9799C135.389 29.3919 134.745 28.8039 134.157 28.7199C132.225 28.5239 130.573 29.0839 129.341 30.6519C128.809 31.2959 128.837 32.0799 129.089 32.7799C129.341 33.5079 129.985 33.9279 130.825 33.9279C131.273 33.9279 131.693 33.9279 132.113 33.9279V33.9559C132.645 33.9559 133.177 33.9559 133.709 33.9279C134.297 33.9279 134.605 33.5639 134.941 33.0599Z" fill="#261D1B"/>
<path d="M123.072 33.6199C123.352 33.8439 123.66 34.3479 123.604 34.6839C123.576 35.0199 123.184 35.4959 122.876 35.5799C122.064 35.7759 121.196 35.7759 121.112 35.8039C119.908 35.8039 119.488 35.8039 119.068 35.8039C115.568 35.7759 114.42 32.8359 114.812 30.3439C114.952 29.5319 115.288 28.7199 115.568 27.9359C115.68 27.6559 115.904 27.4039 116.156 27.1799C116.38 26.9839 116.716 26.8719 116.968 26.7039C119.208 25.1919 120.02 25.2199 122.008 26.9279C122.512 27.3759 122.736 29.1119 122.316 29.6159C122.12 29.8399 121.812 30.0079 121.532 30.1199C120.552 30.5399 119.572 30.8759 118.62 31.3239C118.228 31.4919 117.836 31.7159 117.584 32.0519C116.772 33.0319 119.096 33.8999 119.824 33.6479C120.468 33.3959 121.196 33.5639 121.896 33.3399C122.232 33.2559 122.764 33.3959 123.072 33.6199ZM117.724 28.7479C117.528 28.9999 117.668 29.2799 118.004 29.3639C118.424 29.4479 118.816 29.3639 119.152 29.1399C119.376 28.9999 119.768 28.6639 119.796 28.4119C119.796 28.2719 119.684 28.1319 119.376 28.0759C118.704 27.9359 118.144 28.1879 117.724 28.7479Z" fill="#261D1B"/>
<path d="M111.753 34.9079C111.893 35.5239 111.361 35.8879 110.885 36.1959C110.325 36.5319 109.793 36.3639 109.401 35.9159C108.309 34.6839 107.805 33.1159 107.805 31.4919C107.805 30.8199 107.749 29.8679 108.225 29.3919C108.757 28.8319 109.513 28.9439 110.017 29.4479C110.297 29.7279 110.465 30.1479 110.577 30.5399C110.997 31.9959 111.417 33.4239 111.753 34.9079ZM109.513 24.2399C108.477 24.4079 107.637 23.7919 107.609 22.9239C107.581 22.6159 107.945 22.0839 108.225 22.0559C108.701 21.9719 109.261 22.0839 109.737 22.2799C110.045 22.4199 110.437 23.0079 110.353 23.2039C110.185 23.6519 109.737 24.0159 109.513 24.2399Z" fill="#261D1B"/>
<path d="M100.637 25.892C102.485 25.948 104.585 28.188 103.745 30.764C103.689 30.96 103.577 31.156 103.437 31.324C101.897 33.228 99.9649 34.32 97.5009 34.432C97.1649 34.46 96.8289 34.488 96.4929 34.46C94.5889 34.32 94.2809 34.88 94.8689 36.896C94.9529 37.204 95.1489 37.484 95.2329 37.792C95.5129 38.912 95.2609 39.78 94.6729 39.752C93.8609 39.696 93.5809 39.136 93.3009 38.492C92.3769 36.168 91.9289 33.732 91.9849 30.456C91.9849 30.68 91.9849 30.3999 91.9849 30.1199C91.9849 29.1119 91.9289 28.132 92.7689 27.348C93.6929 26.508 94.7289 25.892 95.9889 25.892C97.5569 25.864 99.0969 25.836 100.637 25.892ZM101.393 30.2039C101.757 29.6999 101.785 29.1679 101.393 28.748C100.917 28.2719 100.413 27.824 99.6849 27.824C98.5929 27.824 97.4729 27.796 96.3809 27.88C94.7009 28.02 93.6929 29.448 94.0569 31.184C94.1129 31.436 94.4209 31.744 94.6729 31.8C95.3169 31.9399 95.9889 31.94 96.6329 31.996C98.4529 31.996 100.189 31.7999 101.393 30.2039ZM91.9849 30.344V30.456C91.9849 30.428 91.9849 30.372 91.9849 30.344Z" fill="#261D1B"/>
<path d="M87.8315 28.3C88.5035 28.804 88.7555 29.532 88.7275 30.372C88.6995 31.548 88.1675 32.416 87.4955 33.284C86.9635 33.984 86.1795 34.012 85.4235 34.264C84.4155 34.628 83.5195 34.376 82.6235 34.068C81.6155 33.732 80.6635 33.172 80.1035 32.164C79.6555 31.408 79.3195 30.428 79.2635 29.476C79.2075 28.664 79.3755 27.852 79.8795 27.18C80.3835 26.536 80.9435 26.116 81.8395 26.284C82.5115 26.424 83.1835 26.48 83.8555 26.536C85.3955 26.676 86.6555 27.432 87.8315 28.3ZM86.2075 31.044C86.5995 30.596 86.4035 29.84 85.9275 29.532C84.9755 28.944 83.9675 28.72 83.0715 28.776C81.1955 28.748 81.0275 29 81.6435 30.596C81.9795 31.492 83.4635 32.5 84.3875 32.416C84.5835 32.388 84.8075 32.36 84.9475 32.248C85.3675 31.856 85.8155 31.492 86.2075 31.044Z" fill="#261D1B"/>
<path d="M69.591 36.028C68.527 36.028 67.435 35.888 66.539 35.44C65.867 35.104 65.279 34.656 64.719 34.152C64.187 33.676 63.599 33.256 63.235 32.668C62.339 31.212 62.087 28.916 62.395 27.292C62.703 25.528 63.403 23.792 64.551 22.364C65.139 21.58 65.951 20.908 66.791 20.348C68.023 19.536 69.423 19.116 70.795 18.584C72.811 17.8 74.995 18.892 76.087 20.544C76.367 20.964 76.311 21.608 76.339 22.168C76.339 22.364 76.199 22.672 76.059 22.728C75.779 22.812 75.359 22.868 75.135 22.728C74.603 22.336 74.127 21.804 73.623 21.356C73.063 20.88 71.915 20.712 71.299 20.964C70.067 21.468 69.115 21.664 68.023 22.448C65.699 24.128 64.943 27.236 65.335 30.008C65.755 33.116 70.235 33.62 72.643 32.948C73.399 32.752 74.071 32.5 74.827 32.892C75.443 33.228 75.779 33.872 75.611 34.544C75.555 34.74 75.387 35.048 75.247 35.076C73.987 35.244 72.783 35.692 71.495 35.86C70.907 35.944 70.263 36 69.591 36.028Z" fill="#261D1B"/>
</svg>
