<?xml version="1.0" encoding="UTF-8"?>
<svg xmlns="http://www.w3.org/2000/svg" xmlns:xlink="http://www.w3.org/1999/xlink" width="80px" height="80px" viewBox="0 0 80 80" version="1.1">
<g id="surface1">
<path style=" stroke:none;fill-rule:nonzero;fill:rgb(14.901961%,11.372549%,10.588235%);fill-opacity:1;" d="M 48.136719 12.703125 C 51.667969 13.929688 53.140625 16.078125 54.773438 19.351562 C 55.363281 20.789062 55.597656 22.207031 55.75 23.738281 C 55.835938 25 55.835938 25 56.214844 26.1875 C 56.527344 29.414062 56.226562 32.320312 55.015625 35.316406 C 54.929688 35.535156 54.84375 35.753906 54.753906 35.980469 C 54.308594 37.050781 53.746094 37.964844 53.09375 38.917969 C 53.09375 39.875 54.03125 40.800781 54.578125 41.578125 C 56.6875 44.644531 57.253906 48.503906 57.65625 52.132812 C 57.722656 52.566406 57.722656 52.566406 57.785156 53.007812 C 58.296875 57.097656 58.550781 61.816406 55.945312 65.195312 C 54.898438 66.476562 53.769531 67.570312 52.371094 68.46875 C 52.183594 68.589844 51.996094 68.714844 51.804688 68.839844 C 48.1875 70.832031 43.203125 71.019531 39.160156 71.109375 C 38.867188 71.117188 38.578125 71.125 38.277344 71.136719 C 34.195312 71.238281 30.144531 71.316406 26.1875 70.148438 C 25.425781 69.386719 25.4375 68.601562 25.40625 67.558594 C 25.398438 67.339844 25.390625 67.117188 25.382812 66.890625 C 25.375 66.660156 25.367188 66.425781 25.359375 66.1875 C 25.296875 64.527344 25.179688 62.933594 24.867188 61.300781 C 24.25 57.414062 24.46875 53.355469 24.472656 49.433594 C 24.476562 48.78125 24.472656 48.132812 24.472656 47.480469 C 24.472656 46.699219 24.472656 45.914062 24.472656 45.132812 C 24.472656 44.84375 24.472656 44.554688 24.472656 44.253906 C 24.472656 43.984375 24.472656 43.714844 24.472656 43.4375 C 24.472656 43.085938 24.472656 43.085938 24.472656 42.722656 C 24.507812 42 24.621094 41.3125 24.746094 40.601562 C 24.761719 40.273438 24.769531 39.941406 24.769531 39.613281 C 24.765625 39.433594 24.765625 39.253906 24.765625 39.070312 C 24.765625 38.878906 24.761719 38.691406 24.757812 38.496094 C 24.757812 38.296875 24.757812 38.101562 24.757812 37.894531 C 24.753906 37.265625 24.75 36.636719 24.746094 36.007812 C 24.738281 35.175781 24.734375 34.34375 24.730469 33.511719 C 24.726562 33.320312 24.726562 33.132812 24.722656 32.933594 C 24.71875 32.078125 24.777344 31.335938 24.984375 30.511719 C 25.03125 29.28125 25.03125 29.28125 24.871094 28.070312 C 24.714844 27.234375 24.660156 26.402344 24.613281 25.554688 C 24.601562 25.378906 24.59375 25.199219 24.582031 25.015625 C 24.484375 23.117188 24.453125 21.21875 24.445312 19.316406 C 24.445312 18.730469 24.4375 18.148438 24.429688 17.566406 C 24.414062 15.179688 24.496094 13.070312 25.945312 11.050781 C 30.777344 8.636719 43.164062 11.320312 48.136719 12.703125 Z M 41.082031 14.894531 C 41.238281 15.210938 41.398438 15.527344 41.5625 15.855469 C 42.3125 15.542969 42.3125 15.542969 42.761719 14.894531 C 42.207031 14.894531 41.652344 14.894531 41.082031 14.894531 Z M 50.210938 18.257812 C 50.050781 18.890625 49.894531 19.527344 49.730469 20.179688 C 50.125 20.101562 50.523438 20.023438 50.929688 19.941406 C 50.929688 19.195312 50.800781 18.894531 50.449219 18.257812 C 50.371094 18.257812 50.292969 18.257812 50.210938 18.257812 Z M 27.867188 19.699219 C 27.867188 20.097656 27.867188 20.492188 27.867188 20.902344 C 27.945312 20.902344 28.027344 20.902344 28.109375 20.902344 C 28.109375 20.503906 28.109375 20.109375 28.109375 19.699219 C 28.027344 19.699219 27.949219 19.699219 27.867188 19.699219 Z M 36.035156 21.382812 C 36.03125 22.078125 36.023438 22.773438 36.019531 23.46875 C 36.019531 23.664062 36.015625 23.859375 36.015625 24.0625 C 36.015625 24.253906 36.011719 24.445312 36.011719 24.640625 C 36.011719 24.816406 36.011719 24.992188 36.007812 25.171875 C 36.039062 25.769531 36.160156 26.320312 36.277344 26.90625 C 36.304688 27.296875 36.324219 27.6875 36.335938 28.078125 C 36.34375 28.292969 36.351562 28.511719 36.359375 28.734375 C 36.375 29.1875 36.386719 29.640625 36.402344 30.089844 C 36.445312 31.285156 36.558594 32.269531 36.996094 33.394531 C 37.085938 33.953125 37.167969 34.511719 37.238281 35.074219 C 38.371094 34.707031 39.164062 34.074219 40.074219 33.332031 C 40.355469 33.105469 40.636719 32.878906 40.921875 32.652344 C 41.0625 32.535156 41.203125 32.417969 41.347656 32.296875 C 41.800781 31.953125 41.800781 31.953125 42.335938 31.660156 C 42.917969 31.316406 43.308594 31.042969 43.722656 30.511719 C 43.949219 29.414062 43.871094 28.378906 43.785156 27.265625 C 43.773438 26.976562 43.757812 26.6875 43.746094 26.386719 C 43.632812 24.285156 43.632812 24.285156 42.523438 22.582031 C 40.503906 21.21875 38.367188 21.238281 36.035156 21.382812 Z M 51.53125 29.355469 C 50.773438 29.890625 50.019531 30.398438 49.203125 30.839844 C 46.597656 32.257812 44.21875 33.707031 41.996094 35.679688 C 41.773438 35.878906 41.550781 36.074219 41.320312 36.277344 C 41.042969 36.523438 41.042969 36.523438 40.761719 36.773438 C 39.761719 37.496094 38.65625 37.941406 37.535156 38.4375 C 36.753906 38.792969 36.097656 39.109375 35.425781 39.648438 C 34.660156 40.257812 33.859375 40.570312 32.957031 40.929688 C 31.660156 41.472656 30.527344 42.019531 29.449219 42.941406 C 29.070312 43.242188 29.070312 43.242188 28.109375 43.722656 C 28.109375 46.101562 28.109375 48.480469 28.109375 50.929688 C 31.03125 49.761719 33.367188 48.339844 35.796875 46.367188 C 36.429688 45.878906 37.074219 45.402344 37.71875 44.925781 C 38 44.710938 38 44.710938 38.285156 44.496094 C 41.488281 42.109375 44.976562 39.839844 48.726562 38.421875 C 49.453125 38.109375 49.746094 37.625 50.210938 36.996094 C 50.367188 36.851562 50.527344 36.710938 50.691406 36.5625 C 52.6875 34.375 52.972656 31.410156 52.851562 28.589844 C 52.367188 28.589844 51.90625 29.085938 51.53125 29.355469 Z M 43.003906 44.925781 C 41.363281 45.992188 39.757812 47.105469 38.199219 48.289062 C 37.949219 48.449219 37.703125 48.605469 37.445312 48.769531 C 36.972656 49.167969 36.78125 49.390625 36.628906 49.996094 C 36.589844 50.625 36.59375 51.238281 36.617188 51.867188 C 36.617188 52.09375 36.621094 52.320312 36.621094 52.554688 C 36.628906 53.28125 36.648438 54.003906 36.667969 54.730469 C 36.675781 55.222656 36.679688 55.714844 36.6875 56.207031 C 36.703125 57.410156 36.726562 58.617188 36.757812 59.820312 C 37.617188 59.847656 38.476562 59.863281 39.339844 59.878906 C 39.582031 59.886719 39.828125 59.894531 40.078125 59.902344 C 40.3125 59.90625 40.550781 59.910156 40.792969 59.914062 C 41.007812 59.917969 41.226562 59.921875 41.449219 59.929688 C 42.25 59.78125 42.507812 59.5 43.003906 58.859375 C 43.277344 58.234375 43.277344 58.234375 43.457031 57.539062 C 43.527344 57.285156 43.601562 57.03125 43.671875 56.773438 C 43.746094 56.507812 43.816406 56.246094 43.890625 55.976562 C 43.960938 55.714844 44.035156 55.449219 44.113281 55.179688 C 44.308594 54.484375 44.5 53.789062 44.683594 53.09375 C 44.730469 52.929688 44.777344 52.761719 44.824219 52.59375 C 45.289062 50.484375 45.25 47.699219 44.269531 45.765625 C 43.898438 45.328125 43.527344 45.144531 43.003906 44.925781 Z M 52.371094 45.644531 C 52.371094 46.28125 52.371094 46.914062 52.371094 47.566406 C 52.691406 47.488281 53.007812 47.410156 53.332031 47.328125 C 53.253906 46.773438 53.175781 46.21875 53.09375 45.644531 C 52.855469 45.644531 52.617188 45.644531 52.371094 45.644531 Z M 28.589844 62.222656 C 28.667969 62.539062 28.746094 62.855469 28.828125 63.183594 C 29.066406 62.867188 29.304688 62.550781 29.550781 62.222656 C 29.234375 62.222656 28.914062 62.222656 28.589844 62.222656 Z M 31.710938 66.546875 C 31.554688 66.707031 31.394531 66.863281 31.230469 67.027344 C 31.230469 67.265625 31.230469 67.503906 31.230469 67.746094 C 31.390625 67.746094 31.546875 67.746094 31.710938 67.746094 C 31.789062 67.351562 31.871094 66.953125 31.953125 66.546875 C 31.871094 66.546875 31.792969 66.546875 31.710938 66.546875 Z M 31.710938 66.546875 "/>
</g>
</svg>
